<?xml version="1.0" standalone="no"?> <!DOCTYPE svg PUBLIC "-//W3C//DTD SVG 1.0//EN" "http://www.w3.org/TR/2001/REC-SVG-20010904/DTD/svg10.dtd" > <svg xmlns="http://www.w3.org/2000/svg" width="100%" height="100%">
<defs >
<font id="verlagbook" horiz-adv-x="777" ><font-face
    font-family="Verlag Book"
    units-per-em="2048"
    panose-1="0 0 0 0 0 0 0 0 0 0"
    ascent="1638"
    descent="-410"
    alphabetic="0" />
<missing-glyph horiz-adv-x="1024" />
<glyph unicode=" " glyph-name="space" horiz-adv-x="460" />
<glyph unicode="!" glyph-name="exclam" horiz-adv-x="450" d="M315 1501L287 373H164L135 1501H315ZM332 90Q332 46 301 15T225 -16Q182 -16 152 15T121 90Q121 133 151 164T225 195Q270 195 301 164T332 90Z" />
<glyph unicode="&quot;" glyph-name="quotedbl" horiz-adv-x="823" d="M440 1321L180 958L90 1018L283 1419L440 1321ZM762 1298L498 934L408 993L600 1399L762 1298Z" />
<glyph unicode="#" glyph-name="numbersign" horiz-adv-x="1208" d="M1157 874L1128 743H911L842 436H1061L1032 307H813L745 0H602L670 307H414L346 0H201L268 307H51L80 436H297L365 743H147L176 874H393L463 1180H608L541 874H795L864 1180H1008L940 874H1157ZM766
743H512L442 436H698L766 743Z" />
<glyph unicode="$" glyph-name="dollar" horiz-adv-x="899" d="M461 1333L584 1323L573 1194Q692 1180 795 1110L721 981Q649 1034 563 1053L532 657Q678 590 744 519T811 328Q811 186 715 89T479 -20L469 -154L346 -143L354 -16Q210 2 68 102L150 233Q257 149
367 125L399 549Q331 580 285 608T200 675T144 760T125 868Q125 995 215 1089T449 1198L461 1333ZM653 315Q653 427 520 498L489 121Q565 135 609 184T653 315ZM281 879Q281 788 412 715L438 1055Q362 1041 322 995T281 879Z" />
<glyph unicode="%" glyph-name="percent" horiz-adv-x="1363" d="M604 1028T604 899T537 684T350 598Q233 598 168 684T102 899Q102 1027 169 1113T354 1200Q472 1200 538 1114ZM1219 1143L238 -39L145 37L1126 1219L1219 1143ZM1262 409T1262 281T1195 67T1010
-20Q892 -20 827 65T762 281Q762 409 829 495T1014 582Q1131 582 1196 496ZM477 820T477 899T445 1030T352 1083Q293 1083 260 1031T227 899T260 768T352 715Q412 715 444 767ZM1137 281Q1137 360 1105 412T1012 465T920 413T887 281Q887 201 919 149T1012 96T1104
148T1137 281Z" />
<glyph unicode="&amp;" glyph-name="ampersand" horiz-adv-x="1245" d="M1051 578L1161 496Q1040 339 952 244Q1064 147 1153 76L1059 -33L848 139Q664 -20 473 -20Q311 -20 207 67T102 311Q102 518 377 647Q297 779 297 883Q297 971 343 1045T460 1159T606 1200Q675
1200 731 1177T821 1115T874 1031T893 938Q893 709 600 588Q699 467 852 332Q927 411 1051 578ZM752 922Q752 984 710 1028T606 1073Q543 1073 496 1020T449 891Q449 806 524 690Q752 787 752 922ZM748 229Q550 410 451 541Q365 508 313 446T260 309Q260 221 321
168T481 115Q609 115 748 229Z" />
<glyph unicode="&apos;" glyph-name="quotesingle" horiz-adv-x="501" d="M440 1321L180 958L90 1018L283 1419L440 1321Z" />
<glyph unicode="(" glyph-name="parenleft" horiz-adv-x="704" d="M719 -350L651 -469Q388 -309 245 -40T102 528Q102 829 245 1097T651 1528L719 1409Q492 1271 371 1034T250 528Q250 353 301 191T459 -114T719 -350Z" />
<glyph unicode=")" glyph-name="parenright" horiz-adv-x="704" d="M602 528Q602 332 541 147T355 -200T53 -469L-14 -350Q138 -257 245 -115T404 190T455 528Q455 796 334 1033T-14 1409L53 1528Q317 1366 459 1098T602 528Z" />
<glyph unicode="*" glyph-name="asterisk" horiz-adv-x="778" d="M696 1237L473 1176L618 999L516 928L389 1116L262 928L162 999L305 1176L82 1237L121 1354L338 1274L326 1499H453L440 1274L657 1354L696 1237Z" />
<glyph unicode="+" glyph-name="plus" horiz-adv-x="942" d="M819 520H545V231H397V520H123V659H397V948H545V659H819V520Z" />
<glyph unicode="," glyph-name="comma" horiz-adv-x="450" d="M336 70Q336 -9 281 -97T123 -246L100 -213Q200 -126 231 -10Q183 -7 154 22T125 94T154 165T225 195Q277 195 306 159T336 70Z" />
<glyph unicode="-" glyph-name="hyphen" horiz-adv-x="694" d="M592 426H102V565H592V426Z" />
<glyph unicode="." glyph-name="period" horiz-adv-x="450" d="M121 90Q121 133 151 164T225 195Q270 195 301 164T332 90Q332 46 301 15T225 -16Q182 -16 152 15T121 90Z" />
<glyph unicode="/" glyph-name="slash" horiz-adv-x="690" d="M690 1501L203 -442H57L547 1501H690Z" />
<glyph unicode="0" glyph-name="zero" horiz-adv-x="1087" d="M1001 590Q1001 422 950 286T793 65T543 -20Q435 -20 348 28T205 161T120 355T90 590T121 825T209 1019T354 1151T551 1200Q694 1200 797 1116T951 896T1001 590ZM834 590Q834 722 803 826T706 996T547
1061T387 996T289 827T258 590Q258 459 289 354T387 184T547 119T706 184T803 354T834 590Z" />
<glyph unicode="1" glyph-name="one" horiz-adv-x="698" d="M485 0H324V993L117 918L68 1059L459 1206H485V0Z" />
<glyph unicode="2" glyph-name="two" horiz-adv-x="892" d="M791 0H45L35 23Q320 328 449 496Q532 601 570 678T608 842Q608 938 549 994T385 1051Q246 1051 131 973L82 1104Q148 1147 228 1173T383 1200Q563 1200 669 1105T776 860Q776 761 733 664T594 444Q476
296 338 145H791V0Z" />
<glyph unicode="3" glyph-name="three" horiz-adv-x="864" d="M805 1157L428 676Q596 653 684 563T772 332Q772 180 664 80T373 -20Q229 -20 66 35L111 170Q251 123 365 123Q484 123 549 180T614 338Q614 441 535 496T303 551Q236 551 176 543L164 561L532 1032H70V1180H795L805
1157Z" />
<glyph unicode="4" glyph-name="four" horiz-adv-x="989" d="M944 354H748V-4H594V354H45V395L707 1202H748V500H944V354ZM594 500V854L303 500H594Z" />
<glyph unicode="5" glyph-name="five" horiz-adv-x="935" d="M829 362Q829 198 720 89T430 -20Q272 -20 115 35L158 172Q290 121 416 121Q540 121 606 188T672 362Q672 459 602 518T399 578Q282 578 182 553L164 575V1180H774V1032H315V721Q365 725 406 725Q612
725 720 625T829 362Z" />
<glyph unicode="6" glyph-name="six" horiz-adv-x="987" d="M889 393Q889 315 862 242T785 110T660 16T492 -20Q313 -20 202 98T90 401Q90 511 125 617T235 830T437 1041T737 1237L807 1114Q611 1006 489 899T307 666Q355 715 409 736T541 758Q689 758 789 651T889
393ZM731 371Q731 486 669 558T500 631Q381 631 316 560T250 373Q250 266 320 192T492 117Q597 117 664 192T731 371Z" />
<glyph unicode="7" glyph-name="seven" horiz-adv-x="868" d="M823 1180L303 0H143L608 1032H63V1180H823Z" />
<glyph unicode="8" glyph-name="eight" horiz-adv-x="985" d="M862 319Q862 177 760 79T492 -20Q328 -20 226 78T123 319Q123 414 173 488T309 606Q147 696 147 868Q147 1009 243 1104T492 1200T740 1105T836 868Q836 697 676 606Q761 563 811 489T862 319ZM684
868Q684 952 631 1009T492 1067T353 1009T299 868Q299 786 353 728T492 670Q577 670 630 728T684 868ZM702 324Q702 413 644 474T492 535Q400 535 342 474T283 324Q283 233 341 173T492 113T643 173T702 324Z" />
<glyph unicode="9" glyph-name="nine" horiz-adv-x="966" d="M889 782Q889 695 867 610T796 437T673 266T489 101T240 -55L172 66Q364 172 482 277T664 506Q586 436 463 436Q312 436 206 540T100 797Q100 963 211 1081T496 1200Q677 1200 783 1083T889 782ZM723
821Q723 928 659 996T494 1065Q388 1065 323 994T258 821Q258 706 318 637T485 567Q603 567 663 635T723 821Z" />
<glyph unicode=":" glyph-name="colon" horiz-adv-x="450" d="M121 90Q121 133 151 164T225 195Q270 195 301 164T332 90Q332 46 301 15T225 -16Q182 -16 152 15T121 90ZM119 607T119 651T150 725T225 756Q268 756 299 725T330 651Q330 607 300 576T225 545T150 576Z" />
<glyph unicode=";" glyph-name="semicolon" horiz-adv-x="450" d="M336 70Q336 -9 281 -97T123 -246L100 -213Q200 -126 231 -10Q183 -7 154 22T125 94T154 165T225 195Q277 195 306 159T336 70ZM119 607T119 651T150 725T225 756Q268 756 299 725T330 651Q330
607 300 576T225 545T150 576Z" />
<glyph unicode="&lt;" glyph-name="less" horiz-adv-x="806" d="M737 190L641 92L78 590L641 1090L737 983L291 586L737 190Z" />
<glyph unicode="=" glyph-name="equal" horiz-adv-x="845" d="M723 668H123V807H723V668ZM723 373H123V512H723V373Z" />
<glyph unicode="&gt;" glyph-name="greater" horiz-adv-x="806" d="M729 592L166 92L70 199L516 596L70 991L166 1090L729 592Z" />
<glyph unicode="?" glyph-name="question" horiz-adv-x="786" d="M739 1176Q739 1115 719 1061T665 965T592 887T512 814T439 744T386 665T365 573V416H215V616Q215 667 234 713T286 797T356 869T432 939T502 1007T553 1082T573 1167Q573 1260 512 1310T328 1360Q215
1360 90 1313L45 1460Q205 1516 342 1516Q533 1516 636 1421T739 1176ZM393 90Q393 46 362 15T287 -16T213 15T182 90Q182 133 213 164T287 195Q331 195 362 164T393 90Z" />
<glyph unicode="@" glyph-name="at" horiz-adv-x="1400" d="M1298 641Q1298 544 1263 464T1161 336Q1100 291 1022 291Q967 291 922 316T852 391Q765 297 651 297Q570 297 516 344T461 471Q461 542 514 587T653 633Q736 633 803 602V625Q803 687 771 716T672 745Q612
745 537 723L520 825Q604 854 692 854Q816 854 876 796T936 618V487Q936 438 963 415T1028 391Q1069 391 1100 412Q1137 440 1158 498T1180 629Q1180 692 1164 753T1112 875T1021 982T884 1056T700 1085Q504 1085 366 939T227 586Q227 370 370 228T766 86Q871 86
1010 133L1038 25Q869 -25 758 -25Q609 -25 485 23T277 154T148 348T102 586Q102 752 182 892T400 1114T700 1196Q845 1196 962 1146T1151 1015T1260 837T1298 641ZM803 446V514Q748 549 684 549Q642 549 615 530T588 473Q588 435 615 413T690 391Q757 391 803
446Z" />
<glyph unicode="A" glyph-name="A" horiz-adv-x="1394" d="M1384 0H1208L1030 416H358L180 0H10L684 1528H711L1384 0ZM971 553L694 1198L418 553H971Z" />
<glyph unicode="B" glyph-name="B" horiz-adv-x="1140" d="M1073 408Q1073 327 1037 253T933 119T761 24T526 -12Q384 -12 164 12V1487Q353 1511 512 1511Q616 1511 703 1490T850 1432T952 1346T1014 1241T1034 1126Q1034 999 975 913T770 776Q854 755 914 717T1008
629T1057 525T1073 408ZM864 1104Q864 1228 779 1300T526 1372Q413 1372 328 1356V838Q393 831 504 831Q689 831 776 909T864 1104ZM901 424Q901 539 797 622T508 705Q388 705 328 698V145Q413 129 549 129Q717 129 809 211T901 424Z" />
<glyph unicode="C" glyph-name="C" horiz-adv-x="1462" d="M1405 119Q1305 57 1177 16T909 -25Q680 -25 499 74T215 350T113 750Q113 913 174 1057T340 1304T593 1466T909 1526Q1048 1526 1176 1485T1405 1382L1337 1243Q1239 1300 1119 1336T895 1372Q710 1372
572 1290T362 1068T291 750Q291 573 365 433T581 211T909 129Q1014 129 1134 165T1352 258L1405 119Z" />
<glyph unicode="D" glyph-name="D" horiz-adv-x="1525" d="M1413 764Q1413 641 1380 528T1278 317T1111 145T873 30T569 -12Q398 -12 164 12V1487Q361 1511 555 1511Q719 1511 859 1471T1100 1359T1272 1193T1378 990T1413 764ZM1235 764Q1235 895 1192 1006T1067
1198T857 1326T569 1372Q413 1372 328 1356V145Q412 129 590 129Q751 129 876 178T1079 313T1195 514T1235 764Z" />
<glyph unicode="E" glyph-name="E" horiz-adv-x="1175" d="M1042 0H164V1501H1042V1354H328V836H971V688H328V147H1042V0Z" />
<glyph unicode="F" glyph-name="F" horiz-adv-x="1101" d="M1042 1354H328V807H971V659H328V0H164V1501H1042V1354Z" />
<glyph unicode="G" glyph-name="G" horiz-adv-x="1587" d="M903 743H1464V152Q1227 -25 915 -25Q760 -25 615 31T359 186T180 432T113 750T181 1069T360 1315T611 1470T897 1526Q1071 1526 1199 1481T1458 1343L1372 1214Q1268 1291 1144 1334T899 1378Q759 1378
643 1327T450 1188T333 988T291 750Q291 619 340 503T472 302T672 170T918 121Q1130 121 1300 223V590H903V743Z" />
<glyph unicode="H" glyph-name="H" horiz-adv-x="1458" d="M1294 0H1130V688H328V0H164V1501H328V836H1130V1501H1294V0Z" />
<glyph unicode="I" glyph-name="I" horiz-adv-x="512" d="M338 0H174V1501H338V0Z" />
<glyph unicode="J" glyph-name="J" horiz-adv-x="929" d="M776 1501V446Q776 235 666 105T352 -25Q161 -25 29 82L113 207Q223 125 354 125Q487 125 549 203T612 449V1501H776Z" />
<glyph unicode="K" glyph-name="K" horiz-adv-x="1226" d="M1221 0H1006L328 737V0H164V1501H328V803L981 1501H1188L492 772L1221 0Z" />
<glyph unicode="L" glyph-name="L" horiz-adv-x="1079" d="M1042 0H164V1501H328V147H1042V0Z" />
<glyph unicode="M" glyph-name="M" horiz-adv-x="1751" d="M1608 0H1442L1419 1061L887 154H864L328 1063L309 0H143L201 1526L231 1530L883 399L1518 1530L1550 1526L1608 0Z" />
<glyph unicode="N" glyph-name="N" horiz-adv-x="1486" d="M1323 -23L1303 -29L328 1139V0H164V1522L197 1530L1159 381V1501H1323V-23Z" />
<glyph unicode="O" glyph-name="O" horiz-adv-x="1722" d="M1610 915T1610 750T1549 440T1384 193T1143 34T854 -25Q704 -25 568 33T332 193T172 439T113 750T174 1060T338 1307T579 1467T868 1526Q1019 1526 1155 1468T1391 1308T1551 1061ZM1432 750Q1432 925
1360 1068T1156 1295T862 1378Q698 1378 567 1295T364 1069T291 750T363 431T567 204T862 121Q1025 121 1156 204T1359 430T1432 750Z" />
<glyph unicode="P" glyph-name="P" horiz-adv-x="1128" d="M1085 1034Q1085 805 928 664T498 522Q430 522 328 530V0H164V1487Q353 1511 508 1511Q649 1511 761 1473T942 1368T1048 1217T1085 1034ZM909 1022Q909 1089 885 1150T814 1259T695 1335T532 1364Q399
1364 328 1348V678Q430 666 508 666Q610 666 688 694T814 771T885 884T909 1022Z" />
<glyph unicode="Q" glyph-name="Q" horiz-adv-x="1722" d="M1624 70L1520 -51L1313 133Q1109 -25 852 -25Q701 -25 566 33T330 193T172 439T113 750Q113 915 174 1060T337 1307T578 1467T866 1526Q1017 1526 1153 1468T1390 1308T1549 1061T1608 750Q1608 459
1430 244L1624 70ZM1430 750Q1430 925 1358 1068T1154 1295T860 1378T567 1295T364 1069T291 750Q291 574 363 431T566 204T860 121Q1051 121 1198 236Q1199 236 1131 298T993 422L924 483L1028 602Q1309 352 1309 350Q1430 526 1430 750Z" />
<glyph unicode="R" glyph-name="R" horiz-adv-x="1216" d="M1198 0H999L600 592Q534 588 500 588Q428 588 330 592V0H166V1487Q355 1511 512 1511Q654 1511 765 1477T946 1383T1053 1241T1090 1061Q1090 904 1005 791T762 627L1198 0ZM913 1051Q913 1188 814 1276T537
1364Q401 1364 330 1348V737Q412 727 512 727Q716 727 814 813T913 1051Z" />
<glyph unicode="S" glyph-name="S" horiz-adv-x="1028" d="M944 406Q944 223 812 99T485 -25Q264 -25 51 115L131 258Q318 125 494 125Q630 125 703 201T776 387Q776 457 754 505T666 602T479 705Q286 790 205 885T123 1116Q123 1197 156 1271T249 1402T395 1492T582
1526Q767 1526 915 1423L842 1284Q714 1376 571 1376Q436 1376 362 1305T287 1124Q287 1044 347 979T543 852Q776 747 860 652T944 406Z" />
<glyph unicode="T" glyph-name="T" horiz-adv-x="1267" d="M1217 1354H717V0H553V1354H51V1501H1217V1354Z" />
<glyph unicode="U" glyph-name="U" horiz-adv-x="1421" d="M1276 539Q1276 280 1120 128T709 -25Q448 -25 297 123T145 539V1501H309V551Q309 334 416 229T709 123Q893 123 1002 229T1112 551V1501H1276V539Z" />
<glyph unicode="V" glyph-name="V" horiz-adv-x="1382" d="M1372 1501L705 -27H678L10 1501H195L696 313L1194 1501H1372Z" />
<glyph unicode="W" glyph-name="W" horiz-adv-x="1875" d="M1855 1501L1442 -25L1409 -29L934 1159L467 -29L434 -25L20 1501H186L483 395L928 1513H948L1395 401L1690 1501H1855Z" />
<glyph unicode="X" glyph-name="X" horiz-adv-x="1368" d="M1327 0H1130L682 633L231 0H41L594 748L41 1501H238L686 868L1137 1501H1327L774 754L1327 0Z" />
<glyph unicode="Y" glyph-name="Y" horiz-adv-x="1300" d="M1260 1501L731 666V0H567V668L41 1501H225L655 805L1079 1501H1260Z" />
<glyph unicode="Z" glyph-name="Z" horiz-adv-x="1269" d="M1184 1477L334 147H1174V0H86L76 23L926 1354H129V1501H1174L1184 1477Z" />
<glyph unicode="[" glyph-name="bracketleft" horiz-adv-x="608" d="M559 -442H164V1501H559V1370H311V-313H559V-442Z" />
<glyph unicode="\" glyph-name="backslash" horiz-adv-x="690" d="M633 -442H487L0 1501H143L633 -442Z" />
<glyph unicode="]" glyph-name="bracketright" horiz-adv-x="608" d="M444 -442H49V-313H297V1370H49V1501H444V-442Z" />
<glyph unicode="^" glyph-name="asciicircum" horiz-adv-x="901" d="M756 993H588L451 1167L315 993H158L430 1321H489L756 993Z" />
<glyph unicode="_" glyph-name="underscore" horiz-adv-x="1064" d="M1065 0H0V139H1065V0Z" />
<glyph unicode="`" glyph-name="grave" horiz-adv-x="901" d="M700 1057L647 971L256 1153L342 1313L700 1057Z" />
<glyph unicode="a" glyph-name="a" horiz-adv-x="892" d="M795 0H645V90Q534 -16 379 -16Q246 -16 157 58T68 260Q68 376 156 452T377 528Q457 528 512 514T637 471V522Q637 632 583 683T412 735Q289 735 186 692L160 831Q307 877 432 877Q617 877 706 788T795
512V0ZM637 219V336Q566 375 518 390T403 406Q319 406 270 369T221 260Q221 190 273 152T420 113Q545 113 637 219Z" />
<glyph unicode="b" glyph-name="b" horiz-adv-x="1044" d="M963 436Q963 249 837 117T539 -16Q465 -16 391 10T268 84V0H115V1501H276V782Q327 825 402 851T557 877Q731 877 847 753T963 436ZM803 434Q803 565 728 653T526 741Q376 741 276 639V231Q318 181 378
150T508 119Q637 119 720 207T803 434Z" />
<glyph unicode="c" glyph-name="c" horiz-adv-x="876" d="M840 72Q700 -16 547 -16Q344 -16 213 111T82 426Q82 549 140 652T306 816T547 877Q701 877 840 788L774 666Q655 737 532 737Q403 737 321 654T238 426Q238 291 328 207T543 123Q663 123 784 195L840 72Z" />
<glyph unicode="d" glyph-name="d" horiz-adv-x="1044" d="M930 0H776V88Q676 -16 502 -16Q316 -16 199 106T82 422Q82 545 140 650T296 816T506 877Q661 877 768 791V1501H930V0ZM768 231V625Q673 741 518 741Q397 741 320 653T242 426Q242 293 319 206T528 119Q673
119 768 231Z" />
<glyph unicode="e" glyph-name="e" horiz-adv-x="944" d="M877 463Q877 412 870 381H240Q271 123 561 123Q660 123 799 170L827 33Q661 -16 547 -16Q324 -16 203 107T82 426Q82 515 110 596T190 740T322 840T500 877Q677 877 777 761T877 463ZM246 504H727Q719
610 659 675T489 741Q386 741 323 679T246 504Z" />
<glyph unicode="f" glyph-name="f" horiz-adv-x="604" d="M657 1497L631 1358Q589 1368 551 1368Q437 1368 392 1314T346 1124V860H600V721H346V0H186V721H53V741L186 874V1102Q186 1304 271 1410T524 1516Q593 1516 657 1497Z" />
<glyph unicode="g" glyph-name="g" horiz-adv-x="1044" d="M930 -80Q930 -272 834 -365T565 -459Q440 -459 276 -412L299 -264Q430 -309 541 -309Q659 -309 713 -257T768 -94V74Q662 -16 502 -16Q316 -16 199 106T82 422Q82 545 140 650T296 816T506 877Q587 877
659 851T776 780V860H930V-80ZM768 221V625Q727 674 662 707T524 741Q398 741 320 651T242 422Q242 289 321 202T539 115T768 221Z" />
<glyph unicode="h" glyph-name="h" horiz-adv-x="993" d="M887 0H725V541Q725 741 545 741Q476 741 402 701T276 602V0H115V1501H276V731Q420 877 586 877Q731 877 809 797T887 584V0Z" />
<glyph unicode="i" glyph-name="i" horiz-adv-x="411" d="M309 1157Q309 1115 279 1085T207 1055Q164 1055 134 1085T104 1157Q104 1200 134 1231T207 1262Q249 1262 279 1231T309 1157ZM287 0H125V860H287V0Z" />
<glyph unicode="j" glyph-name="j" horiz-adv-x="411" d="M313 1157Q313 1115 283 1085T211 1055T139 1085T109 1157Q109 1200 139 1231T211 1262T283 1231T313 1157ZM291 860V-188Q291 -459 49 -459Q-13 -459 -92 -442L-74 -307Q-33 -313 -2 -313Q66 -313 97
-287T129 -201V860H291Z" />
<glyph unicode="k" glyph-name="k" horiz-adv-x="864" d="M862 0H662L276 424V0H115V1501H276V481L641 860H842L426 459L862 0Z" />
<glyph unicode="l" glyph-name="l" horiz-adv-x="407" d="M285 0H123V1501H285V0Z" />
<glyph unicode="m" glyph-name="m" horiz-adv-x="1536" d="M1430 0H1268V551Q1268 643 1231 690T1112 737Q984 737 854 600V0H692V541Q692 645 656 693T530 741Q394 741 276 596V0H115V860H268V729Q423 877 586 877Q681 877 734 836T819 717Q883 790 972 831T1161
872Q1294 872 1362 796T1430 580V0Z" />
<glyph unicode="n" glyph-name="n" horiz-adv-x="980" d="M874 0H713V541Q713 643 672 692T539 741Q471 741 401 701T276 602V0H115V860H268V729Q416 877 586 877Q729 877 801 798T874 584V0Z" />
<glyph unicode="o" glyph-name="o" horiz-adv-x="1034" d="M952 553T952 430T899 206T746 45T518 -16Q325 -16 204 113T82 430Q82 553 135 654T289 816T518 877T746 817T899 655ZM793 289T793 430T717 658T518 745Q394 745 318 658T242 430T318 202T518 115Q641
115 717 202Z" />
<glyph unicode="p" glyph-name="p" horiz-adv-x="1044" d="M963 436Q963 245 840 115T526 -16Q390 -16 276 47V-442H115V860H268V774Q384 877 557 877Q729 877 846 753T963 436ZM803 434Q803 565 727 653T526 741Q378 741 274 639V215Q314 169 380 143T522 117Q646
117 724 206T803 434Z" />
<glyph unicode="q" glyph-name="q" horiz-adv-x="1044" d="M930 -442H768V68Q666 -16 512 -16Q323 -16 203 104T82 422Q82 518 118 603T214 748T353 842T516 877Q670 877 776 784V860H930V-442ZM768 227V625Q727 674 662 707T524 741Q402 741 322 652T242 426Q242
287 321 203T547 119Q612 119 670 148T768 227Z" />
<glyph unicode="r" glyph-name="r" horiz-adv-x="606" d="M575 719Q480 719 400 685T276 588V0H115V860H268V717Q328 795 408 836T575 877V719Z" />
<glyph unicode="s" glyph-name="s" horiz-adv-x="716" d="M647 254Q647 145 567 65T362 -16Q195 -16 55 96L137 211Q186 167 245 141T354 115Q428 115 465 147T502 238Q502 284 461 316T360 372T242 422T142 499T100 621Q100 727 180 802T393 877Q519 877 643
795L571 674Q471 745 387 745Q317 745 283 715T248 635Q248 606 270 583T327 542T405 508T490 470T568 421T625 351T647 254Z" />
<glyph unicode="t" glyph-name="t" horiz-adv-x="604" d="M578 721H324V238Q324 179 357 152T459 125Q488 125 530 131L547 0Q465 -16 406 -16Q166 -16 166 254V721H29V741L166 874V1024L324 1141V860H578V721Z" />
<glyph unicode="u" glyph-name="u" horiz-adv-x="980" d="M866 0H713V121Q654 63 569 24T403 -16Q257 -16 182 63T106 276V860H268V319Q268 119 449 119Q517 119 584 156T705 250V860H866V0Z" />
<glyph unicode="v" glyph-name="v" horiz-adv-x="890" d="M883 860L455 -23H428L8 860H188L449 258L709 860H883Z" />
<glyph unicode="w" glyph-name="w" horiz-adv-x="1220" d="M1212 860L907 -23H881L618 561L352 -23H326L16 860H197L365 299L602 864H629L883 299L1040 860H1212Z" />
<glyph unicode="x" glyph-name="x" horiz-adv-x="854" d="M827 0H645L432 311L213 0H39L352 426L39 860H221L438 545L653 860H827L518 430L827 0Z" />
<glyph unicode="y" glyph-name="y" horiz-adv-x="890" d="M883 860L274 -442H113L371 82L8 860H188L451 244L709 860H883Z" />
<glyph unicode="z" glyph-name="z" horiz-adv-x="829" d="M788 836L285 139H778V0H47L37 23L541 721H76V860H778L788 836Z" />
<glyph unicode="{" glyph-name="braceleft" horiz-adv-x="608" d="M571 -457Q225 -457 225 -102V332Q225 402 198 433T98 465H51V594H98Q171 594 198 625T225 727V1159Q225 1516 571 1516V1372Q471 1372 422 1325T373 1167V760Q373 661 346 615T233 528Q319 489
346 443T373 297V-109Q373 -221 422 -268T571 -315V-457Z" />
<glyph unicode="|" glyph-name="bar" horiz-adv-x="507" d="M324 -442H184V1501H324V-442Z" />
<glyph unicode="}" glyph-name="braceright" horiz-adv-x="608" d="M557 465H510Q438 465 411 433T383 332V-102Q383 -457 37 -457V-315Q137 -315 186 -268T236 -109V297Q236 398 262 443T375 528Q289 568 263 614T236 760V1167Q236 1278 187 1325T37 1372V1516Q383
1516 383 1159V727Q383 656 410 625T510 594H557V465Z" />
<glyph unicode="~" glyph-name="asciitilde" horiz-adv-x="901" d="M752 756Q665 645 557 645Q499 645 438 684Q385 723 338 723Q279 723 219 647L145 743Q232 854 340 854Q399 854 457 815Q513 776 559 776Q618 776 678 852L752 756Z" />
</font>
</defs>
</svg>
